<svg width="836" height="646" viewBox="0 0 836 646" fill="none" xmlns="http://www.w3.org/2000/svg">
<g clip-path="url(#clip0_64_3)">
<path d="M800.841 564.765C797.523 538.087 780.99 511.801 755.547 503.119C765.581 530.579 765.578 560.702 755.54 588.16C751.631 598.735 746.181 610.09 749.859 620.749C752.147 627.38 757.744 632.454 764.001 635.627C770.259 638.8 777.203 640.312 784.06 641.794L785.41 642.91C796.296 618.329 804.159 591.443 800.841 564.765Z" fill="#97C2B8"/>
<path d="M755.294 503.624C770.111 520.225 779.32 541.074 781.613 563.207C782.191 567.963 782.016 572.781 781.095 577.482C780.049 582.033 777.803 586.221 774.591 589.61C771.66 592.831 768.289 595.786 766.191 599.663C765.147 601.663 764.538 603.862 764.403 606.115C764.268 608.367 764.611 610.623 765.409 612.734C767.261 618.045 770.91 622.374 774.627 626.483C778.753 631.046 783.111 635.72 784.865 641.768C785.077 642.501 786.202 642.129 785.99 641.397C782.938 630.873 772.722 624.895 767.85 615.416C765.577 610.993 764.623 605.858 766.754 601.189C768.617 597.107 772.091 594.057 775.088 590.821C778.269 587.561 780.604 583.57 781.888 579.199C783.047 574.56 783.407 569.757 782.954 564.997C782.105 554.263 779.573 543.73 775.452 533.783C770.812 522.405 764.259 511.904 756.078 502.735C755.571 502.168 754.791 503.06 755.294 503.624H755.294Z" fill="white"/>
<path d="M781.294 556.037C784.956 555.148 788.182 552.986 790.396 549.939C792.611 546.891 793.67 543.155 793.385 539.398C793.325 538.638 792.141 538.696 792.201 539.457C792.474 542.955 791.487 546.435 789.418 549.269C787.35 552.103 784.337 554.104 780.923 554.912C780.181 555.088 780.557 556.212 781.294 556.037Z" fill="white"/>
<path d="M776.292 588.173C769.68 584.225 764.798 577.929 762.621 570.541C762.406 569.809 761.281 570.182 761.496 570.913C763.776 578.597 768.869 585.138 775.76 589.232C776.417 589.621 776.946 588.561 776.292 588.173V588.173Z" fill="white"/>
<path d="M769.713 523.527C768.368 524.166 766.885 524.461 765.398 524.386C763.911 524.311 762.466 523.867 761.192 523.095C760.541 522.697 760.012 523.758 760.659 524.153C762.07 524.999 763.667 525.487 765.31 525.575C766.953 525.662 768.592 525.345 770.084 524.652C770.23 524.599 770.351 524.492 770.421 524.353C770.491 524.214 770.505 524.053 770.461 523.904C770.411 523.755 770.305 523.632 770.164 523.562C770.024 523.491 769.862 523.479 769.713 523.527Z" fill="white"/>
<path d="M677.993 550.77C678.393 551.03 678.793 551.29 679.193 551.56C684.552 555.083 689.615 559.036 694.333 563.38C694.703 563.71 695.073 564.05 695.433 564.39C706.689 574.975 715.881 587.558 722.543 601.5C725.189 607.05 727.409 612.793 729.183 618.68C731.633 626.81 733.643 635.82 738.493 642.47C738.991 643.169 739.532 643.837 740.113 644.47H783.943C784.043 644.42 784.143 644.38 784.243 644.33L785.993 644.41C785.923 644.1 785.843 643.78 785.773 643.47C785.733 643.29 785.683 643.11 785.643 642.93C785.613 642.81 785.583 642.69 785.563 642.58C785.553 642.54 785.543 642.5 785.533 642.47C785.513 642.36 785.483 642.26 785.463 642.16C785.023 640.37 784.57 638.58 784.103 636.79C784.103 636.78 784.103 636.78 784.093 636.77C780.503 623.14 775.743 609.69 769.093 597.39C768.893 597.02 768.693 596.64 768.473 596.27C765.445 590.742 761.97 585.471 758.083 580.51C755.946 577.8 753.673 575.2 751.273 572.72C745.059 566.323 737.878 560.944 729.993 556.78C714.273 548.48 696.073 545.3 679.273 550.37C678.843 550.5 678.423 550.63 677.993 550.77Z" fill="#97C2B8"/>
<path d="M678.092 551.326C699.917 555.661 719.822 566.762 734.979 583.054C738.305 586.503 741.065 590.455 743.16 594.764C745.065 599.028 745.793 603.723 745.269 608.363C744.868 612.7 743.955 617.089 744.615 621.447C744.986 623.673 745.823 625.795 747.071 627.675C748.32 629.555 749.952 631.149 751.86 632.354C756.536 635.48 762.056 636.739 767.497 637.783C773.539 638.942 779.833 640.05 784.875 643.823C785.486 644.281 786.16 643.306 785.549 642.849C776.777 636.284 765.021 637.661 755.424 633.026C750.946 630.864 747.092 627.338 745.983 622.327C745.013 617.945 745.95 613.418 746.395 609.031C746.972 604.512 746.434 599.921 744.828 595.657C742.959 591.256 740.355 587.204 737.127 583.676C729.987 575.617 721.624 568.731 712.345 563.27C701.789 556.979 690.235 552.54 678.183 550.144C677.437 549.996 677.351 551.179 678.092 551.326V551.326Z" fill="white"/>
<path d="M730.408 577.521C732.796 574.607 734.07 570.939 734.004 567.172C733.937 563.405 732.533 559.784 730.044 556.956C729.538 556.386 728.628 557.145 729.134 557.716C731.457 560.345 732.765 563.718 732.819 567.226C732.874 570.734 731.673 574.146 729.434 576.846C728.948 577.434 729.924 578.105 730.408 577.521H730.408Z" fill="white"/>
<path d="M745.762 606.192C738.105 607.02 730.417 604.933 724.231 600.345C723.618 599.89 722.945 600.864 723.556 601.319C730.003 606.081 738.008 608.237 745.974 607.357C746.733 607.273 746.518 606.108 745.762 606.192V606.192Z" fill="white"/>
<path d="M701.588 558.537C700.899 559.857 699.892 560.985 698.659 561.82C697.427 562.655 696.006 563.171 694.524 563.321C693.764 563.396 693.981 564.561 694.736 564.487C696.372 564.314 697.94 563.742 699.305 562.822C700.669 561.903 701.787 560.663 702.562 559.211C702.646 559.081 702.678 558.923 702.65 558.77C702.622 558.617 702.537 558.48 702.412 558.387C702.283 558.298 702.123 558.264 701.969 558.292C701.815 558.32 701.678 558.408 701.588 558.537V558.537Z" fill="white"/>
<path d="M607.42 95.9805L84.3367 0.144507C83.2718 -0.0602207 82.1765 -0.0472926 81.1167 0.182509C80.1555 0.393029 79.2531 0.814515 78.4747 1.4165C77.7139 2.00995 77.1017 2.77242 76.6867 3.64351C76.2452 4.58431 76.0207 5.61229 76.0297 6.6515V475.274C76.02 476.314 76.2438 477.342 76.6847 478.284C77.099 479.155 77.7105 479.918 78.4707 480.511C79.2486 481.114 80.1507 481.536 81.1117 481.747C82.1713 481.978 83.2667 481.992 84.3317 481.787L607.42 385.951C607.853 385.861 608.255 385.658 608.583 385.36C608.966 385.018 609.286 384.612 609.53 384.16C609.813 383.645 610.027 383.095 610.167 382.523C610.322 381.902 610.4 381.264 610.401 380.624V101.324C610.401 100.681 610.323 100.042 610.168 99.4185C610.028 98.847 609.814 98.2963 609.531 97.7805C609.287 97.3287 608.966 96.9227 608.584 96.5805C608.256 96.2832 607.854 96.0791 607.421 95.9895L607.42 95.9805Z" fill="#F4FCFA"/>
<path d="M615.42 95.9805L92.3367 0.144507C91.2718 -0.0602207 90.1765 -0.0472926 89.1167 0.182509C88.1555 0.393029 87.2531 0.814515 86.4747 1.4165C85.7139 2.00995 85.1017 2.77242 84.6867 3.64351C84.2452 4.58431 84.0207 5.61229 84.0297 6.6515V475.274C84.02 476.314 84.2438 477.342 84.6847 478.284C85.099 479.155 85.7105 479.918 86.4707 480.511C87.2486 481.114 88.1507 481.536 89.1117 481.747C90.1713 481.978 91.2667 481.992 92.3317 481.787L615.42 385.951C615.853 385.861 616.255 385.658 616.583 385.36C616.966 385.018 617.286 384.612 617.53 384.16C617.813 383.645 618.027 383.095 618.167 382.523C618.322 381.902 618.4 381.264 618.401 380.624V101.324C618.401 100.681 618.323 100.042 618.168 99.4185C618.028 98.847 617.814 98.2963 617.531 97.7805C617.287 97.3287 616.966 96.9227 616.584 96.5805C616.256 96.2832 615.854 96.0791 615.421 95.9895L615.42 95.9805Z" fill="white"/>
<path d="M615.42 95.9805L92.3367 0.144507C91.2718 -0.0602207 90.1765 -0.0472926 89.1167 0.182509C88.1555 0.393029 87.2531 0.814515 86.4747 1.4165C85.7139 2.00995 85.1017 2.77242 84.6867 3.64351C84.2452 4.58431 84.0207 5.61229 84.0297 6.6515V475.274C84.02 476.314 84.2438 477.342 84.6847 478.284C85.099 479.155 85.7105 479.918 86.4707 480.511C87.2486 481.114 88.1507 481.536 89.1117 481.747C90.1713 481.978 91.2667 481.992 92.3317 481.787L615.42 385.951C615.853 385.861 616.255 385.658 616.583 385.36C616.966 385.018 617.286 384.612 617.53 384.16C617.813 383.645 618.027 383.095 618.167 382.523C618.322 381.902 618.4 381.264 618.401 380.624V101.324C618.401 100.681 618.323 100.042 618.168 99.4185C618.028 98.847 617.814 98.2963 617.531 97.7805C617.287 97.3287 616.966 96.9227 616.584 96.5805C616.256 96.2832 615.854 96.0791 615.421 95.9895L615.42 95.9805ZM617.41 380.792C617.41 381.221 617.358 381.648 617.254 382.064C617.16 382.446 617.018 382.813 616.829 383.158C616.666 383.459 616.452 383.73 616.197 383.957C615.978 384.155 615.71 384.29 615.422 384.349L92.3417 479.122C91.632 479.257 90.9024 479.247 90.1967 479.092C89.5572 478.951 88.9571 478.669 88.4397 478.268C87.934 477.872 87.5273 477.364 87.2517 476.784C86.9589 476.158 86.8099 475.474 86.8157 474.784V7.1495C86.8097 6.45873 86.9583 5.77536 87.2507 5.1495C87.5258 4.56882 87.9322 4.06009 88.4377 3.66351C88.9547 3.26158 89.5544 2.97946 90.1937 2.83751C90.8993 2.68246 91.629 2.6719 92.3387 2.8065L615.422 97.5825C615.71 97.6415 615.978 97.7769 616.197 97.9745C616.452 98.2025 616.666 98.4732 616.829 98.7745C617.018 99.1183 617.161 99.4855 617.255 99.8665C617.359 100.283 617.411 100.71 617.411 101.139V380.792L617.41 380.792Z" fill="#97C2B8"/>
<path d="M0.00067737 146.269C-0.0244861 143.072 0.651732 139.908 1.98168 137.001C3.22464 134.315 5.06153 131.946 7.35367 130.075C9.66097 128.203 12.3547 126.867 15.2407 126.162C18.363 125.408 21.6076 125.311 24.7697 125.875C28.0862 126.452 31.2686 127.633 34.1587 129.36C37.0139 131.058 39.5697 133.216 41.7237 135.745C43.8595 138.239 45.5661 141.07 46.7737 144.124C47.9771 147.153 48.6019 150.382 48.6157 153.641C48.6381 156.724 48.0105 159.777 46.7737 162.602C45.6121 165.226 43.8881 167.563 41.7237 169.447C39.5298 171.346 36.948 172.742 34.1587 173.54C31.1071 174.401 27.9097 174.618 24.7697 174.178V174.178C21.4248 173.717 18.1951 172.637 15.2457 170.994C12.2824 169.349 9.61711 167.218 7.36167 164.689C5.09668 162.164 3.27955 159.272 1.98867 156.136C0.694304 153.006 0.0191816 149.655 0.00067737 146.269V146.269Z" fill="#E4E4E4"/>
<path d="M0.00067737 243.269C-0.0244861 240.071 0.651732 236.908 1.98168 234C3.22464 231.315 5.06153 228.946 7.35367 227.075C9.66097 225.203 12.3547 223.867 15.2407 223.162C18.363 222.408 21.6076 222.311 24.7697 222.874C28.0862 223.452 31.2686 224.633 34.1587 226.36C37.0139 228.058 39.5697 230.216 41.7237 232.745C43.8595 235.239 45.5661 238.07 46.7737 241.124C47.9771 244.153 48.6019 247.382 48.6157 250.641C48.6381 253.724 48.0105 256.777 46.7737 259.602C45.6121 262.226 43.8881 264.563 41.7237 266.447C39.5298 268.346 36.948 269.742 34.1587 270.54C31.1071 271.401 27.9097 271.618 24.7697 271.178V271.178C21.4248 270.717 18.1951 269.637 15.2457 267.994C12.2824 266.349 9.61711 264.218 7.36167 261.689C5.09668 259.164 3.27955 256.272 1.98867 253.136C0.694304 250.006 0.0191816 246.655 0.00067737 243.269Z" fill="#E4E4E4"/>
<path d="M0.00067737 340.269C-0.0244861 337.072 0.651732 333.908 1.98168 331.001C3.22464 328.315 5.06153 325.946 7.35367 324.075C9.66097 322.203 12.3547 320.867 15.2407 320.162C18.363 319.408 21.6076 319.311 24.7697 319.875C28.0862 320.452 31.2686 321.633 34.1587 323.36C37.0139 325.058 39.5697 327.216 41.7237 329.746C43.8595 332.239 45.5661 335.07 46.7737 338.124C47.9771 341.153 48.6019 344.382 48.6157 347.642C48.6381 350.724 48.0105 353.777 46.7737 356.602C45.6121 359.226 43.8881 361.563 41.7237 363.448C39.5298 365.346 36.948 366.742 34.1587 367.54C31.1071 368.401 27.9097 368.618 24.7697 368.178V368.178C21.4248 367.717 18.1951 366.637 15.2457 364.994C12.2824 363.349 9.61711 361.218 7.36167 358.689C5.09668 356.164 3.27955 353.272 1.98867 350.136C0.694304 347.006 0.0191816 343.655 0.00067737 340.269Z" fill="#E4E4E4"/>
<path d="M6.00068 146.269C5.97551 143.072 6.65173 139.908 7.98168 137.001C9.22464 134.315 11.0615 131.946 13.3537 130.075C15.661 128.203 18.3547 126.867 21.2407 126.162C24.363 125.408 27.6076 125.311 30.7697 125.875C34.0862 126.452 37.2686 127.633 40.1587 129.36C43.0139 131.058 45.5697 133.216 47.7237 135.745C49.8595 138.239 51.5661 141.07 52.7737 144.124C53.9771 147.153 54.6019 150.382 54.6157 153.641C54.6381 156.724 54.0105 159.777 52.7737 162.602C51.6121 165.226 49.8881 167.563 47.7237 169.447C45.5298 171.346 42.948 172.742 40.1587 173.54C37.1071 174.401 33.9097 174.618 30.7697 174.178V174.178C27.4248 173.717 24.1951 172.637 21.2457 170.994C18.2824 169.349 15.6171 167.218 13.3617 164.689C11.0967 162.164 9.27955 159.272 7.98867 156.136C6.6943 153.006 6.01918 149.655 6.00068 146.269V146.269Z" fill="#97C2B8"/>
<path d="M6.00068 242.607C5.98537 239.363 6.66067 236.153 7.98168 233.189C9.23614 230.398 11.0669 227.903 13.3537 225.869C15.641 223.837 18.3273 222.305 21.2407 221.369C24.3158 220.391 27.559 220.053 30.7697 220.378C34.0491 220.7 37.2363 221.647 40.1587 223.169C43.0045 224.65 45.5657 226.623 47.7237 228.996C49.867 231.343 51.5769 234.052 52.7737 236.996C53.9859 239.98 54.611 243.169 54.6147 246.39C54.6285 249.517 54.0016 252.614 52.7727 255.489C51.5944 258.226 49.8667 260.692 47.6968 262.733C45.5269 264.775 42.9609 266.35 40.1577 267.36C37.1517 268.439 33.9564 268.892 30.7687 268.69V268.69C27.4635 268.487 24.2292 267.645 21.2447 266.21C15.2865 263.346 10.5748 258.41 7.98968 252.325C6.68682 249.251 6.01062 245.947 6.00068 242.607V242.607Z" fill="#97C2B8"/>
<path d="M6.00069 338.947C5.99659 335.719 6.64594 332.524 7.90964 329.554C9.17334 326.584 11.0252 323.901 13.3537 321.666C16.217 318.924 19.7047 316.921 23.5155 315.829C27.3263 314.738 31.3456 314.59 35.2262 315.4C39.1067 316.209 42.7318 317.952 45.7882 320.476C48.8446 323 51.2404 326.231 52.7687 329.889C54.2709 333.529 54.8586 337.481 54.4805 341.401C54.1023 345.32 52.7698 349.088 50.5994 352.373C48.4291 355.659 45.4869 358.363 42.0301 360.249C38.5734 362.135 34.7072 363.146 30.7697 363.193C25.9492 363.263 21.2152 361.908 17.1624 359.297C13.1095 356.686 9.91838 352.936 7.98969 348.518C6.67789 345.497 6.00088 342.239 6.00069 338.947V338.947Z" fill="#97C2B8"/>
<path d="M21.1097 146.158L28.3717 147.275V140.115C28.3682 139.805 28.4317 139.498 28.5577 139.214C28.6756 138.953 28.8509 138.721 29.0707 138.537C29.2927 138.351 29.5529 138.218 29.8327 138.145C30.1376 138.068 30.4553 138.054 30.7657 138.106C31.0946 138.159 31.4108 138.272 31.6987 138.44C31.9857 138.606 32.2432 138.819 32.4607 139.07C32.6778 139.318 32.8519 139.601 32.9757 139.907C33.0992 140.21 33.164 140.534 33.1667 140.862V148.012L40.2907 149.105C40.6143 149.156 40.9256 149.267 41.2087 149.432C41.7763 149.761 42.2176 150.271 42.4627 150.88C42.5835 151.181 42.6463 151.502 42.6477 151.826C42.65 152.133 42.5869 152.437 42.4627 152.718C42.3479 152.976 42.1771 153.207 41.9627 153.392C41.745 153.576 41.4893 153.711 41.2137 153.786C40.9144 153.865 40.6017 153.882 40.2957 153.834L33.1617 152.767V159.901C33.164 160.21 33.0999 160.517 32.9737 160.801C32.8556 161.063 32.6807 161.296 32.4617 161.484C32.2405 161.671 31.9811 161.807 31.7017 161.884C31.3981 161.966 31.0808 161.984 30.7697 161.938C30.4412 161.89 30.1245 161.781 29.8357 161.618C29.5484 161.455 29.2905 161.245 29.0727 160.998C28.8551 160.751 28.681 160.47 28.5577 160.166C28.4351 159.861 28.372 159.536 28.3717 159.209V152.049L21.1097 150.959C20.7761 150.907 20.4547 150.795 20.1617 150.628C19.8701 150.462 19.6082 150.248 19.3867 149.997C19.1665 149.749 18.9897 149.465 18.8637 149.158C18.7381 148.852 18.6729 148.523 18.6717 148.192C18.6693 147.879 18.7348 147.569 18.8637 147.285C18.9846 147.02 19.1634 146.786 19.3867 146.601C19.6126 146.412 19.8771 146.275 20.1617 146.201C20.4715 146.121 20.7942 146.107 21.1097 146.158V146.158Z" fill="white"/>
<path d="M26.2067 250.932L46.3727 252.394H46.4467L36.9897 235.224C36.931 235.117 36.8469 235.025 36.7447 234.956C36.6945 234.923 36.6404 234.896 36.5837 234.875C36.5266 234.855 36.4671 234.842 36.4067 234.836C36.3479 234.831 36.2887 234.834 36.2307 234.844C36.1748 234.855 36.1206 234.873 36.0697 234.898C35.9678 234.949 35.8827 235.028 35.8247 235.125L29.3897 245.703L29.0797 246.212L26.2067 250.932Z" fill="white"/>
<path d="M14.6977 250.098L32.4897 251.387L29.0797 246.211L28.8337 245.838L24.3617 239.049C24.2825 238.943 24.1837 238.854 24.0707 238.787C24.0158 238.754 23.9579 238.726 23.8977 238.705C23.8355 238.682 23.7711 238.667 23.7057 238.658C23.6425 238.649 23.5784 238.646 23.5147 238.65C23.4527 238.655 23.3914 238.665 23.3317 238.683C23.273 238.7 23.2163 238.723 23.1627 238.753C23.1088 238.782 23.0585 238.818 23.0127 238.858L22.9977 238.877L22.9787 238.895L22.9637 238.913L22.9487 238.933L14.6977 250.098Z" fill="white"/>
<path d="M28.1526 232.398C28.5629 232.434 28.9624 232.548 29.3296 232.734C29.6897 232.918 30.0144 233.163 30.2886 233.459C30.5624 233.754 30.7811 234.096 30.9346 234.467C31.0903 234.844 31.1708 235.246 31.1716 235.653C31.1734 236.048 31.0927 236.438 30.9346 236.799C30.7846 237.141 30.5645 237.448 30.2886 237.699C30.0114 237.951 29.6848 238.143 29.3296 238.262C28.9509 238.389 28.5504 238.436 28.1526 238.401C27.7419 238.367 27.3417 238.254 26.9736 238.068C26.6119 237.886 26.2855 237.641 26.0097 237.344C25.734 237.049 25.5135 236.707 25.3587 236.334C25.2016 235.957 25.1204 235.552 25.1197 235.142C25.1179 234.747 25.1994 234.355 25.3587 233.992C25.5102 233.65 25.732 233.344 26.0097 233.092C26.2889 232.842 26.6171 232.652 26.9736 232.534C27.3532 232.409 27.7545 232.363 28.1526 232.398V232.398Z" fill="white"/>
<path d="M245.764 300.844L445.444 111.387L446.3 112.887L247.012 302.447L245.764 300.844Z" fill="#97C2B8"/>
<path d="M245.796 86.1105L247.048 84.6105L446.282 291.436L445.423 292.861L245.796 86.1105Z" fill="#97C2B8"/>
<path d="M443.424 108.621L249.324 81.9545C248.426 81.8263 247.511 81.9043 246.649 82.1825C245.827 82.4533 245.078 82.9059 244.456 83.5065C243.812 84.1279 243.306 84.8774 242.971 85.7065C242.603 86.6213 242.418 87.5988 242.424 88.5845V297.525C242.421 298.524 242.606 299.514 242.971 300.445C243.309 301.31 243.813 302.1 244.455 302.773C245.073 303.42 245.82 303.931 246.648 304.273C247.495 304.619 248.409 304.772 249.323 304.721L443.424 294.031C444.079 293.988 444.713 293.781 445.269 293.43C445.857 293.059 446.366 292.577 446.769 292.01C447.213 291.389 447.554 290.701 447.779 289.973C448.025 289.181 448.151 288.356 448.15 287.527V115.507C448.149 114.667 448.024 113.832 447.779 113.03C447.551 112.276 447.21 111.561 446.769 110.91C446.366 110.308 445.857 109.785 445.269 109.365C444.721 108.974 444.089 108.719 443.424 108.621V108.621ZM249.324 302.571C248.671 302.606 248.019 302.495 247.415 302.247C246.824 302.001 246.291 301.636 245.851 301.173C245.393 300.691 245.034 300.125 244.793 299.507C244.533 298.843 244.401 298.136 244.403 297.424V88.8435C244.399 88.1411 244.531 87.4445 244.793 86.7925C245.031 86.1996 245.392 85.6634 245.851 85.2185C246.294 84.7901 246.829 84.4671 247.415 84.2735C248.03 84.0736 248.683 84.0164 249.324 84.1065L443.424 110.412C443.899 110.482 444.351 110.664 444.743 110.944C445.164 111.243 445.528 111.615 445.817 112.044C446.133 112.509 446.376 113.02 446.54 113.559C446.715 114.132 446.805 114.729 446.806 115.33V287.597C446.806 288.19 446.716 288.78 446.54 289.347C446.379 289.868 446.135 290.359 445.817 290.803C445.528 291.207 445.164 291.552 444.743 291.817C444.345 292.065 443.892 292.211 443.424 292.24L249.324 302.571Z" fill="#97C2B8"/>
<path d="M242.894 326.785C242.378 326.842 241.886 327.033 241.467 327.34C241.004 327.679 240.611 328.103 240.309 328.591C239.965 329.134 239.704 329.727 239.537 330.349C239.351 331.027 239.261 331.727 239.27 332.431C239.274 333.104 239.375 333.773 239.57 334.418C239.739 334.984 240.003 335.518 240.35 335.997C240.652 336.419 241.044 336.768 241.497 337.021C241.925 337.255 242.41 337.364 242.897 337.336L582.701 309.199C582.971 309.176 583.225 309.059 583.419 308.869C583.666 308.633 583.866 308.352 584.009 308.041C584.19 307.659 584.324 307.256 584.409 306.841C584.51 306.362 584.562 305.874 584.565 305.384C584.57 304.899 584.526 304.414 584.433 303.938C584.355 303.534 584.226 303.141 584.049 302.769C583.914 302.473 583.718 302.207 583.475 301.991C583.278 301.816 583.023 301.722 582.761 301.726H582.701L242.894 326.785Z" fill="#97C2B8"/>
<path d="M242.894 358.806C242.375 358.877 241.883 359.081 241.467 359.399C241.005 359.749 240.612 360.182 240.309 360.677C239.965 361.228 239.705 361.828 239.537 362.456C239.351 363.138 239.261 363.843 239.27 364.551C239.273 365.221 239.374 365.888 239.57 366.53C239.738 367.09 240.002 367.617 240.35 368.089C240.651 368.501 241.043 368.84 241.495 369.08C241.926 369.303 242.411 369.399 242.895 369.357L582.701 331.871C582.973 331.84 583.226 331.716 583.419 331.522C583.666 331.278 583.866 330.992 584.009 330.677C584.19 330.288 584.324 329.88 584.409 329.461C584.509 328.979 584.562 328.489 584.565 327.998C584.571 327.514 584.526 327.03 584.433 326.556C584.356 326.154 584.227 325.765 584.049 325.398C583.913 325.106 583.716 324.847 583.472 324.638C583.274 324.468 583.018 324.38 582.758 324.393H582.698L242.894 358.806Z" fill="#97C2B8"/>
<path d="M242.894 390.308C242.372 390.394 241.881 390.612 241.467 390.94C241.005 391.303 240.612 391.747 240.309 392.25C239.966 392.809 239.706 393.415 239.537 394.05C239.351 394.734 239.261 395.441 239.27 396.151C239.273 396.818 239.374 397.482 239.57 398.121C239.738 398.675 240.002 399.196 240.35 399.659C240.652 400.063 241.044 400.392 241.495 400.619C241.929 400.831 242.415 400.914 242.895 400.858L582.701 354.175C582.974 354.135 583.227 354.006 583.419 353.807C583.665 353.557 583.865 353.265 584.009 352.946C584.189 352.553 584.324 352.142 584.409 351.719C584.509 351.236 584.562 350.744 584.565 350.252C584.571 349.769 584.526 349.287 584.433 348.814C584.356 348.416 584.227 348.03 584.049 347.666C583.913 347.378 583.716 347.124 583.472 346.922C583.272 346.757 583.016 346.676 582.758 346.696H582.698L242.894 390.308Z" fill="#97C2B8"/>
<path d="M40.4637 328.801L21.0657 328.569C20.7423 328.557 20.4193 328.603 20.1117 328.704C19.8143 328.801 19.5359 328.949 19.2887 329.141C19.0423 329.332 18.8312 329.564 18.6647 329.828C18.4941 330.098 18.3738 330.397 18.3097 330.711C18.2457 331.085 18.2652 331.469 18.3667 331.835C18.4174 332.017 18.4878 332.194 18.5767 332.362C18.758 332.703 19.0115 333.001 19.3197 333.235C19.7819 333.585 20.3448 333.777 20.9247 333.782L26.7587 333.835C27.0338 333.836 27.3024 333.918 27.5316 334.071C27.7607 334.223 27.9405 334.439 28.0487 334.692C28.1215 334.863 28.1589 335.047 28.1587 335.233V346.677C28.1443 347.308 28.3548 347.925 28.7527 348.416C29.1509 348.908 29.71 349.244 30.3317 349.366C30.8952 349.46 31.4741 349.367 31.9798 349.101C32.4855 348.836 32.8901 348.411 33.1317 347.894C33.2908 347.553 33.3734 347.181 33.3737 346.805V335.265C33.3738 335.084 33.4094 334.906 33.4784 334.74C33.5474 334.574 33.6485 334.423 33.7759 334.295C33.9033 334.168 34.0545 334.067 34.2209 333.998C34.3873 333.93 34.5656 333.894 34.7456 333.894L34.7587 333.895L40.3317 333.939C40.9539 333.959 41.563 333.757 42.0507 333.37C42.5383 332.983 42.8729 332.436 42.9947 331.826C43.0558 331.456 43.0365 331.078 42.9379 330.716C42.8393 330.355 42.6638 330.019 42.4235 329.732C42.1832 329.445 41.8836 329.213 41.5454 329.052C41.2072 328.891 40.8382 328.806 40.4637 328.801V328.801Z" fill="white"/>
<path d="M40.4647 344.219C41.0178 344.218 41.5562 344.396 42.0003 344.726C42.4444 345.056 42.7704 345.52 42.9302 346.049C43.09 346.579 43.075 347.146 42.8874 347.666C42.6998 348.187 42.3496 348.633 41.8887 348.938C41.4278 349.244 40.8807 349.393 40.3283 349.364C39.776 349.335 39.2478 349.128 38.8221 348.775C38.3963 348.422 38.0955 347.941 37.9643 347.404C37.8331 346.866 37.8785 346.301 38.0937 345.792C38.2897 345.325 38.6194 344.926 39.0413 344.646C39.4632 344.367 39.9584 344.218 40.4647 344.219V344.219Z" fill="white"/>
<path d="M495.112 192.56C495.022 193.258 494.877 193.948 494.679 194.624L535.115 243.039L550.217 240.437L557.123 262.715L530.836 269.92C528.712 270.502 526.457 270.38 524.409 269.571C522.361 268.762 520.63 267.311 519.477 265.435L481.896 204.296C479.185 204.304 476.535 203.486 474.3 201.951C472.065 200.416 470.35 198.237 469.384 195.704C468.417 193.17 468.245 190.403 468.889 187.769C469.534 185.136 470.965 182.761 472.993 180.961C475.02 179.16 477.548 178.02 480.239 177.691C482.93 177.362 485.658 177.86 488.059 179.12C490.461 180.379 492.421 182.339 493.681 184.74C494.941 187.141 495.44 189.869 495.112 192.56V192.56Z" fill="#FFB6B6"/>
<path d="M536.905 240.34C537.337 239.64 537.915 239.042 538.6 238.585C539.284 238.129 540.059 237.826 540.871 237.697L569.24 233.173C573.254 231.906 577.605 232.283 581.341 234.221C585.077 236.158 587.893 239.498 589.17 243.507C590.447 247.517 590.082 251.87 588.155 255.611C586.228 259.352 582.896 262.177 578.89 263.465L552.97 276.067C552.231 276.427 551.422 276.622 550.6 276.641C549.777 276.66 548.961 276.502 548.205 276.177C547.45 275.851 546.773 275.367 546.221 274.757C545.67 274.147 545.256 273.425 545.009 272.64L536.315 245.07C536.068 244.286 535.992 243.457 536.094 242.641C536.196 241.824 536.472 241.04 536.905 240.34V240.34Z" fill="#3F3D56"/>
<path d="M538.487 632.518H526.227L520.395 585.23L538.489 585.231L538.487 632.518Z" fill="#FFB6B6"/>
<path d="M541.613 644.402L502.083 644.401V643.901C502.083 639.82 503.704 635.907 506.59 633.021C509.475 630.136 513.388 628.515 517.469 628.515H517.47L541.614 628.516L541.613 644.402Z" fill="#2F2E41"/>
<path d="M666.487 632.518H654.227L648.395 585.23L666.489 585.231L666.487 632.518Z" fill="#FFB6B6"/>
<path d="M669.613 644.402L630.083 644.401V643.901C630.083 639.82 631.704 635.907 634.59 633.021C637.475 630.136 641.388 628.515 645.469 628.515H645.47L669.614 628.516L669.613 644.402Z" fill="#2F2E41"/>
<path d="M543.274 344.47L596.399 329.118C615.752 342.844 629.114 370.358 624.787 405.957C617.813 463.325 658.186 537.087 675.598 611.826L645.489 612.772L579.56 454.992L540.907 616.057L514.012 616.902L531.997 395.133L543.274 344.47Z" fill="#2F2E41"/>
<path d="M566.93 204.956C582.108 204.956 594.412 192.652 594.412 177.474C594.412 162.296 582.108 149.992 566.93 149.992C551.752 149.992 539.448 162.296 539.448 177.474C539.448 192.652 551.752 204.956 566.93 204.956Z" fill="#FFB6B6"/>
<path d="M538.967 299.677C532.893 289.014 529.891 276.064 535.178 264.99C536.51 262.202 540.14 259.566 542.04 257.129L563.274 225.47L587.25 221.613C607.999 239.015 590.274 298.47 607.274 337.47L536.274 375.47C541.349 356.088 548.198 315.881 538.967 299.677Z" fill="#3F3D56"/>
<path d="M539.274 166.47C539.274 166.47 541.135 163.023 552.274 167.47C556.172 169.026 558 168.668 558.254 172.055C559.157 184.801 563.819 196.992 571.65 207.089L571.735 207.199L577.304 202.117L584.465 207.834L614.698 208.469C614.698 208.469 619.472 184.965 603.56 158.283C587.647 131.602 555.027 146.213 555.027 146.213C532.749 147.484 539.274 166.47 539.274 166.47Z" fill="#2F2E41"/>
<path d="M469.114 131.342L275.014 104.676C274.116 104.548 273.202 104.626 272.339 104.904C271.518 105.175 270.768 105.628 270.146 106.228C269.502 106.85 268.997 107.599 268.661 108.428C268.294 109.343 268.108 110.32 268.114 111.306V320.246C268.111 321.245 268.297 322.236 268.661 323.166C269 324.031 269.504 324.822 270.145 325.494C270.763 326.142 271.51 326.652 272.338 326.994C273.185 327.341 274.099 327.494 275.013 327.442L469.114 316.752C469.769 316.709 470.404 316.503 470.959 316.152C471.547 315.781 472.056 315.298 472.459 314.731C472.903 314.111 473.244 313.423 473.469 312.694C473.716 311.902 473.841 311.078 473.84 310.248V138.228C473.839 137.389 473.714 136.554 473.469 135.751C473.241 134.998 472.901 134.283 472.459 133.631C472.056 133.03 471.548 132.507 470.959 132.086C470.411 131.696 469.779 131.441 469.114 131.342Z" fill="#97C2B8"/>
<path opacity="0.2" d="M469.114 131.342L275.014 104.676C274.116 104.548 273.202 104.626 272.339 104.904C271.518 105.175 270.768 105.628 270.146 106.228C269.502 106.85 268.997 107.599 268.661 108.428C268.294 109.343 268.108 110.32 268.114 111.306V320.246C268.111 321.245 268.297 322.236 268.661 323.166C269 324.031 269.504 324.822 270.145 325.494C270.763 326.142 271.51 326.652 272.338 326.994C273.185 327.341 274.099 327.494 275.013 327.442L469.114 316.752C469.769 316.709 470.404 316.503 470.959 316.152C471.547 315.781 472.056 315.298 472.459 314.731C472.903 314.111 473.244 313.423 473.469 312.694C473.716 311.902 473.841 311.078 473.84 310.248V138.228C473.839 137.389 473.714 136.554 473.469 135.751C473.241 134.998 472.901 134.283 472.459 133.631C472.056 133.03 471.548 132.507 470.959 132.086C470.411 131.696 469.779 131.441 469.114 131.342Z" fill="black"/>
<path d="M477.114 131.342L283.014 104.676C282.116 104.548 281.202 104.626 280.339 104.904C279.518 105.175 278.768 105.628 278.146 106.228C277.502 106.85 276.997 107.599 276.661 108.428C276.294 109.343 276.108 110.32 276.114 111.306V320.246C276.111 321.245 276.297 322.236 276.661 323.166C277 324.031 277.504 324.822 278.145 325.494C278.763 326.142 279.51 326.652 280.338 326.994C281.185 327.341 282.099 327.494 283.013 327.442L477.114 316.752C477.769 316.709 478.404 316.503 478.959 316.152C479.547 315.781 480.056 315.298 480.459 314.731C480.903 314.111 481.244 313.423 481.469 312.694C481.716 311.902 481.841 311.078 481.84 310.248V138.228C481.839 137.389 481.714 136.554 481.469 135.751C481.241 134.998 480.901 134.283 480.459 133.631C480.056 133.03 479.548 132.507 478.959 132.086C478.411 131.696 477.779 131.441 477.114 131.342Z" fill="#97C2B8"/>
<path d="M476.281 298.383C476.809 298.848 477.3 299.354 477.748 299.897L540.502 293.482L546.797 279.51L569.125 286.255L560.384 312.072C559.678 314.158 558.314 315.958 556.498 317.203C554.681 318.448 552.51 319.07 550.31 318.976L478.61 315.904C477.099 318.155 474.938 319.893 472.416 320.886C469.893 321.879 467.127 322.081 464.487 321.464C461.847 320.847 459.457 319.441 457.635 317.433C455.813 315.425 454.646 312.91 454.289 310.222C453.931 307.534 454.401 304.801 455.635 302.387C456.868 299.973 458.808 297.991 461.195 296.706C463.583 295.421 466.305 294.893 469 295.192C471.694 295.492 474.234 296.605 476.281 298.383V298.383Z" fill="#FFB6B6"/>
<path d="M539.267 290.488C538.929 289.738 538.756 288.924 538.761 288.102C538.766 287.279 538.949 286.467 539.296 285.722L551.424 259.679C552.62 255.644 555.367 252.248 559.064 250.236C562.76 248.224 567.104 247.76 571.142 248.946C575.18 250.131 578.583 252.87 580.605 256.561C582.627 260.252 583.103 264.594 581.928 268.636L577.866 297.169C577.75 297.983 577.459 298.763 577.015 299.455C576.57 300.147 575.982 300.735 575.29 301.179C574.597 301.623 573.817 301.913 573.003 302.029C572.189 302.144 571.359 302.083 570.57 301.849L542.857 293.624C542.068 293.39 541.339 292.989 540.719 292.448C540.1 291.906 539.604 291.238 539.267 290.488V290.488Z" fill="#3F3D56"/>
<path d="M834.459 645.47H453.459C453.193 645.47 452.939 645.364 452.751 645.177C452.564 644.989 452.459 644.735 452.459 644.47C452.459 644.204 452.564 643.95 452.751 643.763C452.939 643.575 453.193 643.47 453.459 643.47H834.459C834.724 643.47 834.978 643.575 835.166 643.763C835.353 643.95 835.459 644.204 835.459 644.47C835.459 644.735 835.353 644.989 835.166 645.177C834.978 645.364 834.724 645.47 834.459 645.47Z" fill="#97C2B8"/>
</g>
<defs>
<clipPath id="clip0_64_3">
<rect width="835.459" height="645.47" fill="white"/>
</clipPath>
</defs>
</svg>
