<svg width="50" height="50" viewBox="0 0 50 50" fill="none" xmlns="http://www.w3.org/2000/svg">
<path d="M18.2065 24.9287V9.14855C18.2065 7.34681 18.9223 5.61886 20.1963 4.34484C21.4703 3.07081 23.1983 2.35507 25 2.35507C26.8017 2.35507 28.5297 3.07081 29.8037 4.34484C31.0777 5.61886 31.7935 7.34681 31.7935 9.14855V11.4198" stroke="black" stroke-width="4.16667" stroke-linecap="round"/>
<path d="M31.7935 25.0034V40.8514C31.7935 42.6532 31.0777 44.3811 29.8037 45.6552C28.5297 46.9292 26.8017 47.6449 25 47.6449C23.1983 47.6449 21.4703 46.9292 20.1963 45.6552C18.9223 44.3811 18.2065 42.6532 18.2065 40.8514V38.553" stroke="black" stroke-width="4.16667" stroke-linecap="round"/>
<path d="M25 31.7935H9.13044C5.38949 31.7935 2.35507 28.7523 2.35507 25C2.35507 21.2477 5.38949 18.2065 9.13044 18.2065H11.4006" stroke="#97C2B8" stroke-width="4.16667" stroke-linecap="round"/>
<path d="M25 18.2065H40.839C42.6423 18.205 44.3724 18.9199 45.6488 20.1939C46.9251 21.4679 47.6431 23.1967 47.6449 25C47.6449 28.7523 44.598 31.7935 40.839 31.7935H38.6617" stroke="#97C2B8" stroke-width="4.16667" stroke-linecap="round"/>
</svg>
