<svg width="117" height="31" viewBox="0 0 117 31" fill="none" xmlns="http://www.w3.org/2000/svg">
<g clip-path="url(#clip0_12_12)">
<path d="M15.7964 0.74696L34.5187 28.8701H22.3637L3.61495 0.74696H15.7964ZM20.3776 4.63972L22.3637 0.74696H34.5187L26.4154 13.7228L20.3776 4.63972ZM15.7964 28.8701H3.61495L11.4269 15.4706L17.703 24.9244L15.7964 28.8701Z" fill="#97C2B8"/>
<path d="M48.8624 2.32613C51.5184 2.32613 53.7744 3.01413 55.6304 4.39013C57.5184 5.76613 58.8144 7.59013 59.5184 9.86213V2.66213H62.8304V28.8701H59.5184V21.6701C58.8144 23.9421 57.5184 25.7661 55.6304 27.1421C53.7744 28.5181 51.5184 29.2061 48.8624 29.2061C46.4944 29.2061 44.3664 28.6621 42.4784 27.5741C40.6224 26.4861 39.1664 24.9341 38.1104 22.9181C37.0864 20.8701 36.5744 18.4861 36.5744 15.7661C36.5744 13.0141 37.0864 10.6301 38.1104 8.61413C39.1664 6.56613 40.6224 5.01413 42.4784 3.95813C44.3344 2.87013 46.4624 2.32613 48.8624 2.32613ZM49.7264 5.30213C46.7824 5.30213 44.4144 6.24613 42.6224 8.13413C40.8624 9.99013 39.9824 12.5341 39.9824 15.7661C39.9824 18.9981 40.8624 21.5581 42.6224 23.4461C44.4144 25.3021 46.7824 26.2301 49.7264 26.2301C51.5824 26.2301 53.2464 25.7981 54.7184 24.9341C56.2224 24.0701 57.3904 22.8541 58.2224 21.2861C59.0864 19.6861 59.5184 17.8461 59.5184 15.7661C59.5184 13.6861 59.0864 11.8621 58.2224 10.2941C57.3904 8.69413 56.2224 7.46213 54.7184 6.59813C53.2464 5.73413 51.5824 5.30213 49.7264 5.30213ZM73.5273 8.08613C74.2953 6.19813 75.5273 4.74213 77.2233 3.71813C78.9193 2.69413 80.9833 2.18213 83.4153 2.18213V5.83013H82.3113C79.7833 5.83013 77.6873 6.51813 76.0233 7.89413C74.3593 9.23813 73.5273 11.4461 73.5273 14.5181V28.8701H70.1193V2.66213H73.5273V8.08613ZM98.9249 2.32613C101.581 2.32613 103.837 3.01413 105.693 4.39013C107.581 5.76613 108.877 7.59013 109.581 9.86213V2.66213H112.893V28.8701H109.581V21.6701C108.877 23.9421 107.581 25.7661 105.693 27.1421C103.837 28.5181 101.581 29.2061 98.9249 29.2061C96.5569 29.2061 94.4289 28.6621 92.5409 27.5741C90.6849 26.4861 89.2289 24.9341 88.1729 22.9181C87.1489 20.8701 86.6369 18.4861 86.6369 15.7661C86.6369 13.0141 87.1489 10.6301 88.1729 8.61413C89.2289 6.56613 90.6849 5.01413 92.5409 3.95813C94.3969 2.87013 96.5249 2.32613 98.9249 2.32613ZM99.7889 5.30213C96.8449 5.30213 94.4769 6.24613 92.6849 8.13413C90.9249 9.99013 90.0449 12.5341 90.0449 15.7661C90.0449 18.9981 90.9249 21.5581 92.6849 23.4461C94.4769 25.3021 96.8449 26.2301 99.7889 26.2301C101.645 26.2301 103.309 25.7981 104.781 24.9341C106.285 24.0701 107.453 22.8541 108.285 21.2861C109.149 19.6861 109.581 17.8461 109.581 15.7661C109.581 13.6861 109.149 11.8621 108.285 10.2941C107.453 8.69413 106.285 7.46213 104.781 6.59813C103.309 5.73413 101.645 5.30213 99.7889 5.30213Z" fill="black"/>
</g>
<defs>
<clipPath id="clip0_12_12">
<rect width="117" height="31" fill="white"/>
</clipPath>
</defs>
</svg>
